<svg version="1.0" xmlns="http://www.w3.org/2000/svg"
 width="112.000000pt" height="100.000000pt" viewBox="0 0 112.000000 100.000000"
 preserveAspectRatio="xMidYMid meet">
<g transform="translate(0.000000,100.000000) scale(0.100000,-0.100000)"
fill="#000000" stroke="none">
<path d="M673 981 c-82 -51 -45 -181 51 -181 42 0 91 39 99 77 7 40 -16 89
-52 107 -39 21 -59 20 -98 -3z"/>
<path d="M380 882 c-46 -23 -60 -53 -60 -134 0 -38 -2 -68 -5 -68 -3 0 -17 8
-31 17 -33 21 -110 21 -150 0 -37 -19 -77 -62 -100 -107 -23 -45 -31 -192 -14
-246 42 -133 161 -189 274 -129 26 14 49 25 50 25 2 0 6 -9 9 -20 5 -19 12
-21 74 -18 l68 3 3 348 2 347 -42 0 c-24 0 -59 -8 -78 -18z m-85 -314 c24 -11
25 -14 25 -113 0 -117 -6 -128 -67 -123 -54 4 -76 48 -70 138 4 54 9 68 32 87
30 26 43 28 80 11z"/>
<path d="M636 428 c-4 -150 -12 -288 -17 -305 -6 -18 -28 -48 -50 -67 -46 -39
-39 -46 45 -46 77 0 134 32 166 95 25 49 25 54 29 322 l3 273 -85 0 -84 0 -7
-272z"/>
<path d="M970 388 c-14 -7 -33 -30 -43 -50 -16 -33 -16 -40 -4 -71 38 -89 146
-90 183 -1 12 29 12 39 1 67 -8 17 -21 38 -30 45 -23 19 -79 24 -107 10z"/>
</g>
</svg>
